<svg width="48" height="48" xmlns="http://www.w3.org/2000/svg">

 <g>
  <title>background</title>
  <rect fill="none" id="canvas_background" height="402" width="582" y="-1" x="-1"/>
 </g>
 <g>
  <title>Layer 1</title>
  <path id="svg_1" fill="none" d="m0,0l48,0l0,48l-48,0l0,-48z"/>
  <path fill="#ffffff" id="svg_2" d="m25.74,30.15l-5.08,-5.02l0.06,-0.06c3.48,-3.88 5.96,-8.34 7.42,-13.06l5.86,0l0,-4.01l-14,0l0,-4l-4,0l0,4l-14,0l0,3.98l22.34,0c-1.35,3.86 -3.46,7.52 -6.34,10.72c-1.86,-2.07 -3.4,-4.32 -4.62,-6.7l-4,0c1.46,3.26 3.46,6.34 5.96,9.12l-10.17,10.05l2.83,2.83l10,-10l6.22,6.22l1.52,-4.07zm11.26,-10.15l-4,0l-9,24l4,0l2.25,-6l9.5,0l2.25,6l4,0l-9,-24zm-5.25,14l3.25,-8.67l3.25,8.67l-6.5,0z"/>
 </g>
</svg>